<?xml version="1.0" encoding="utf-8"?>
<svg version="1.1" id="waves-1" xmlns="http://www.w3.org/2000/svg" xmlns:xlink="http://www.w3.org/1999/xlink" x="0px" y="0px" viewBox="0 0 1920 409" style="enable-background:new 0 0 1920 409;" xml:space="preserve" width="1920" height="409">
<style type="text/css">
	.fill-navy{fill:#212738;}
	.fill-blue{fill:#2A4365;}
	.fill-light{fill:#E1E7FF;}
</style>
<path class="fill-navy" d="M0,57.52c49.96,25.06,143.17,59.01,299,73.98c221.33,21.26,382.5,5.63,399-2C708.38,124.7,422.2,52.73,207.07,0H0V57.52z"/>
<path class="fill-blue" d="M0,26.31c51.68,26,149.05,65.52,281,77.19c202,17.87,251.5,28.63,268,21c9.44-4.36-177.63-69.53-340.51-124.5H0V26.31z"/>
<path class="fill-navy" d="M1319,190.5c294,115.07,495.13,128.31,601,182.3V0h-872.13C1107.23,75.31,1195.99,142.35,1319,190.5z"/>
<path class="fill-blue" d="M1319,143.5c294,115.07,495.13,128.31,601,182.3V0h-830.05C1146.69,56.07,1222.25,105.63,1319,143.5z"/>
<path class="fill-light" d="M0,10.59c129.32,52.11,288.97,97.13,480,130.41c852.23,148.5,1335.22,42.58,1440,161.25V0H0V10.59z"/>
</svg>
